<?xml version="1.0" encoding="utf-8"?>
<!-- Generator: Adobe Illustrator 22.1.0, SVG Export Plug-In . SVG Version: 6.00 Build 0)  -->
<svg version="1.1" id="Layer_1" xmlns="http://www.w3.org/2000/svg" xmlns:xlink="http://www.w3.org/1999/xlink" x="0px" y="0px"
	 viewBox="0 0 200 141" style="enable-background:new 0 0 200 141;" xml:space="preserve">
<style type="text/css">
	.st0{fill:#5B186A;}
	.st1{opacity:0.8;}
	.st2{fill:#9D74A6;}
	.st3{fill:#F08339;}
	.st4{fill:#FEE180;}
</style>
<g>
	<path class="st0" d="M72,99.6c2.7,2.5,4,6.1,4,11v21.9h-6.2v-4.8c-1.1,1.7-2.7,3-4.7,3.9c-2,0.9-4.4,1.3-7.2,1.3
		c-4.1,0-7.3-1-9.7-2.9c-2.4-2-3.7-4.5-3.7-7.7c0-3.2,1.2-5.8,3.5-7.7c2.3-1.9,6-2.9,11.1-2.9h10.4v-1.3c0-2.8-0.8-5-2.5-6.5
		c-1.6-1.5-4.1-2.3-7.2-2.3c-2.1,0-4.2,0.4-6.3,1.1c-2.1,0.7-3.8,1.7-5.2,2.8l-2.7-4.9c1.9-1.5,4.1-2.7,6.7-3.5
		c2.6-0.8,5.4-1.2,8.3-1.2C65.5,95.9,69.3,97.1,72,99.6z M65.4,126.2c1.8-1.1,3.1-2.7,4-4.8v-5.1H59.3c-5.6,0-8.3,1.9-8.3,5.6
		c0,1.8,0.7,3.3,2.1,4.3c1.4,1.1,3.4,1.6,5.9,1.6C61.5,127.8,63.6,127.3,65.4,126.2z"/>
	<path class="st0" d="M99.5,97.5c2.2-1.1,4.9-1.6,8.1-1.6v6.4c-0.4,0-0.9-0.1-1.5-0.1c-3.6,0-6.3,1.1-8.4,3.2c-2,2.1-3,5.1-3,9.1v18
		h-6.6V96.3h6.3v6.1C95.6,100.2,97.3,98.6,99.5,97.5z"/>
	<path class="st0" d="M121.3,130.5c-2.9-1.6-5.2-3.8-6.8-6.6s-2.5-6-2.5-9.5c0-3.6,0.8-6.7,2.5-9.5s3.9-5,6.8-6.6
		c2.9-1.6,6.2-2.4,9.9-2.4c3.3,0,6.2,0.7,8.8,2c2.6,1.3,4.6,3.2,6,5.7l-5,3.2c-1.1-1.7-2.6-3-4.2-3.9c-1.7-0.9-3.6-1.3-5.6-1.3
		c-2.4,0-4.5,0.5-6.4,1.6c-1.9,1-3.4,2.5-4.4,4.5c-1.1,1.9-1.6,4.2-1.6,6.7c0,2.6,0.5,4.8,1.6,6.7c1.1,1.9,2.6,3.4,4.4,4.5
		c1.9,1.1,4,1.6,6.4,1.6c2.1,0,3.9-0.4,5.6-1.3c1.7-0.9,3.1-2.2,4.2-3.9l5,3.1c-1.4,2.5-3.4,4.4-6,5.8c-2.6,1.3-5.5,2-8.8,2
		C127.4,132.9,124.2,132.1,121.3,130.5z"/>
	<path class="st0" d="M179.1,99.6c2.7,2.5,4,6.1,4,11v21.9h-6.2v-4.8c-1.1,1.7-2.7,3-4.7,3.9c-2,0.9-4.4,1.3-7.2,1.3
		c-4.1,0-7.3-1-9.7-2.9c-2.4-2-3.7-4.5-3.7-7.7c0-3.2,1.2-5.8,3.5-7.7c2.3-1.9,6-2.9,11.1-2.9h10.4v-1.3c0-2.8-0.8-5-2.5-6.5
		c-1.6-1.5-4.1-2.3-7.2-2.3c-2.1,0-4.2,0.4-6.3,1.1c-2.1,0.7-3.8,1.7-5.2,2.8l-2.7-4.9c1.9-1.5,4.1-2.7,6.7-3.5
		c2.6-0.8,5.4-1.2,8.3-1.2C172.6,95.9,176.4,97.1,179.1,99.6z M172.6,126.2c1.8-1.1,3.1-2.7,4-4.8v-5.1h-10.1
		c-5.6,0-8.3,1.9-8.3,5.6c0,1.8,0.7,3.3,2.1,4.3c1.4,1.1,3.4,1.6,5.9,1.6C168.6,127.8,170.7,127.3,172.6,126.2z"/>
</g>
<g>
	<g class="st1">
		<path class="st0" d="M5.8,131.1c1.7-8.6,4.6-16.9,8.4-24.7c3.8-7.8,8.7-15,14.2-21.6c5.6-6.5,12-12.3,18.9-17.3
			c6.9-5,14.4-9.1,22.2-12.3c15.6-6.4,32.6-9.3,49.2-8.2l3.1,0.2l3.1,0.3c2.1,0.2,4.1,0.5,6.2,0.9c4.1,0.6,8.1,1.6,12.1,2.7
			c7.9,2.3,15.6,5.4,22.8,9.4c-7.4-3.5-15.2-6.1-23.2-7.8c-4-0.8-8-1.5-12-1.9c-2-0.2-4-0.4-6.1-0.4l-3-0.1l-3,0
			c-16.1,0.1-32.1,3.9-46.4,10.9C65,64.7,58.3,69,52.3,74c-6,5-11.5,10.7-16.2,17c-4.6,6.3-8.5,13-11.4,20.2
			c-2.9,7.1-4.9,14.6-5.9,22.2L5.8,131.1z"/>
	</g>
	<g class="st1">
		<path class="st2" d="M5.9,80.5c11.2-13,24.6-23.9,39.6-31.8c7.5-4,15.4-7.1,23.5-9.5c4-1.2,8.2-2.1,12.3-2.9
			c4.2-0.7,8.3-1.3,12.5-1.5c4.2-0.3,8.4-0.3,12.6-0.2c4.2,0.2,8.3,0.6,12.5,1.3c8.2,1.3,16.3,3.4,24,6.5l2.9,1.1
			c1,0.4,1.9,0.8,2.8,1.3c0.9,0.4,1.9,0.8,2.8,1.3l2.8,1.4c3.7,1.8,7.2,4,10.6,6.4c6.7,4.8,12.7,10.4,18.1,16.6
			c-5.7-5.8-12.1-11-19-15.2c-3.5-2.1-7-4-10.7-5.5l-2.8-1.2c-0.9-0.4-1.9-0.7-2.8-1.1c-0.9-0.3-1.9-0.7-2.8-1l-2.9-0.9
			c-7.7-2.4-15.6-4-23.5-4.7c-4-0.4-8-0.4-11.9-0.4c-4,0.1-7.9,0.4-11.9,1c-3.9,0.5-7.8,1.3-11.6,2.2c-3.8,1-7.6,2.1-11.3,3.5
			c-7.4,2.7-14.5,6.1-21.2,10.2c-13.4,8.2-24.9,19-34.2,31.5L5.9,80.5z"/>
	</g>
	<g class="st1">
		<path class="st3" d="M17,43.6c14.4-9,30.3-15.6,46.8-19.3c16.4-3.7,33.6-4.5,50.1-1.8c16.5,2.7,32.5,9.2,45.8,19
			c13.3,9.8,24.1,22.8,31.1,37.6c-8-14.2-19.5-26.2-33-34.8c-13.5-8.7-29-13.7-44.8-15.2c-15.8-1.5-31.7,0.3-46.8,4.8
			c-15.1,4.5-29.3,11.5-41.9,20.7L17,43.6z"/>
	</g>
	<g class="st1">
		<path class="st4" d="M37.5,10.7c16.3-5,33.2-6.6,49.8-5.7c16.6,0.9,33.1,4.4,48.4,10.8c15.2,6.4,29.4,15.9,39.9,28.6
			c10.6,12.6,17,28.3,19.4,44.2c-3.5-15.7-10.9-30.6-21.9-42c-10.9-11.5-24.9-19.6-39.8-24.6c-14.9-5.1-30.6-7.3-46.2-7.1
			c-15.6,0.2-31.1,2.9-45.4,8.3L37.5,10.7z"/>
	</g>
</g>
</svg>
